<?xml version="1.0" encoding="UTF-8"?>
<svg id="Lager_1" xmlns="http://www.w3.org/2000/svg" viewBox="0 0 651 595">
  <defs>
    <style>
      .cls-1 {
        fill: #198ec3;
      }

      .cls-2 {
        fill: #1f92c4;
      }

      .cls-3 {
        fill: #3ba0cd;
      }

      .cls-4 {
        fill: #fbfefe;
      }

      .cls-5 {
        fill: #fefefe;
      }

      .cls-6 {
        fill: #189cd9;
      }
    </style>
  </defs>
  <path class="cls-5" d="M.09,594.91C.09,398.14.11,201.36,0,4.59,0,.84.84,0,4.59,0c213.94.1,427.88.1,641.82,0,3.75,0,4.59.84,4.59,4.59-.11,195.27-.11,390.54,0,585.82,0,3.75-.84,4.59-4.59,4.59-215.44-.1-430.88-.09-646.31-.09ZM323.01,105.12c-67.13,0-134.27.05-201.4-.12-4.74-.01-5.66,1.41-5.65,5.83.12,81.46.05,162.91.12,244.37.01,17.06,2.54,33.85,7.08,50.29,12.93,46.76,41.49,81.67,82.03,107.3,32.97,20.84,69.14,33.26,107.39,39.98,4.91.86,9.87,1.67,14.9.88,40.9-6.48,79.51-19.37,114.49-41.89,57.55-37.06,86.83-90.48,87.7-158.44,1.03-80.78.18-161.58.34-242.37,0-4.94-1.37-5.96-6.09-5.94-66.97.16-133.93.11-200.9.12Z"/>
  <path class="cls-6" d="M323.01,105.11c66.97,0,133.93.04,200.9-.12,4.72-.01,6.1,1,6.09,5.94-.16,80.79.69,161.59-.34,242.37-.86,67.96-30.15,121.39-87.7,158.44-34.97,22.52-73.58,35.41-114.49,41.89-5.03.8-9.99-.01-14.9-.88-38.25-6.72-74.42-19.15-107.39-39.98-40.54-25.62-69.1-60.54-82.03-107.3-4.54-16.44-7.06-33.22-7.08-50.29-.07-81.46,0-162.91-.12-244.37,0-4.41.91-5.84,5.65-5.83,67.13.17,134.27.12,201.4.11ZM429.69,380.66l.23.22-.25-.18c.7,0,1.03-.34,1-1.04l.18.32-.21-.3c.71-.01,1.03-.34.85-1.06l.32.29-.28-.32c1.88-1.79,4.07-3.45,2.69-6.58.13-.67.26-1.35.39-2.02,2.1-.94,1.33-2.85,1.34-4.38.07-7.48.17-14.95-.02-22.43-.09-3.3,1.08-4.32,4.31-4.25,8.3.18,16.61.04,24.92.06,3.38,0,6.03-1.14,7.48-4.38l.27.29-.3-.26c1.02.14,1.32-.52,1.48-1.33l.18-.2c.81-.14,1.47-.44,1.44-1.43l-.07.07c4.99-3.76,7.53-14.46,4.65-21.74-1.19-3.01-.85-7.07-4.73-8.67l.31-.26-.28.29c.08-.73-.25-1.06-.98-.98l.4-.21-.39.23c.1-1.18-.7-1.36-1.6-1.43h-.01c-.14-2-1.55-2.02-3.01-1.98h0c-3.02-2.4-6.18-3.9-10.31-3.45-6.75.74-13.53.94-20.31-.2-2.75-.46-3.47-1.73-3.42-4.33.13-7.65.33-15.32-.07-22.95-.23-4.38.03-9.4-4.98-11.98l.03.02c-.05-2.89-2.35-3.68-4.39-4.77-5.7-3.03-11.92-2.86-17.9-2.03-3.32.46-7.9.35-9.27,5.09l-.18-.22.23.18c-1.19-.07-1.37.73-1.4,1.64h0c-1.46.15-2.09.86-1.58,2.34v-.05c-3.14,3.01-3.2,7.06-3.32,10.89-.23,7.46-.23,14.93,0,22.39.11,3.56-1.15,4.67-4.58,4.48-4.47-.24-8.96.09-13.43-.08-10.23-.41-20.53,1.15-30.71-1.02-.02-15.62-.03-31.24-.05-46.87.27,0,.53-.01.79-.06,6.74,0,13.48.15,20.21-.07,3.52-.11,7.19,1.04,10.58-.83,3.49-.37,7.04-.61,9.05-4.19l-.02.02c.93-.01,1.8-.08,1.63-1.39v-.09c3.71-.2,3.87-3.44,4.36-5.77,1.1-5.22,2.76-10.6-.57-15.72-.11-.66-.23-1.31-.34-1.97,1.69-1.72.09-2.28-1.06-3-.2-.1-.27-.26-.19-.47.06-.69-.21-1.19-.86-1.48l.03.05c.05-.95-.08-1.76-1.3-1.8l.08.03c-.02-.75-.44-1.09-1.15-1.14-.53-.37-1.05-.75-1.58-1.12-.04-1.13-.72-1.6-1.69-2.15-4-2.3-8.34-1.74-12.63-1.95-8.43-.41-16.95,1.17-25.31-1,0-.64,0-1.28,0-1.92,1.11-.29,1.61-1.04,1.61-2.15,0-5.58,0-11.17,0-16.75,0-1.11-.48-1.87-1.59-2.17l-.11-2.99c1.62-4.51.5-8.09-3.64-10.63v-.27s.03.27.03.27c.08-.7-.25-1.05-.94-1.08l.05.06c-.15-1.72-1.24-2.29-2.79-2.29h.02c-2.24-3.65-5.63-5.1-9.78-5-6.75.16-13.73-.45-18.87,5.36l-.17-.28.22.24c-1.39-.1-2.01.64-2.11,1.94,0,0,.06-.04.05-.04-.46.25-.92.5-1.39.75-.78.48-.91,1.24-.86,2.07l.03-.07-.96,1.6.02.35c-1.65.62-1.83,2-2.22,3.54-1.56,6.25-.84,12.57-.9,18.86-.11,11.62-.03,11.62-11.37,11.62-6.33,0-12.65-.02-18.98.01-2.14.01-4.42-.17-5.48,2.38,0,0,.11-.14.11-.14-.42.28-.85.55-1.27.83l.05-.03c-.82-.04-1.58.07-2.08.83-.28.45-.57.89-.85,1.34l.06-.07c-1.22.19-1.94.85-1.98,2.14l.07-.07c-5.45,3.65-6.99,15.11-2.94,21.79.19.67.39,1.33.58,2-.34,2.76.27,4.95,3.39,5.62l-.02.04c-.03.71.31,1.04,1.02.99l-.35.17.33-.2c2.8,5.39,8.14,5.03,12.89,5.25,7.64.36,15.32.17,22.98.05,2.72-.04,3.89.8,3.87,3.69-.1,13.32-.06,26.64-.03,39.97,0,2.44-.47,4.36-3.44,4.37-13.16,0-26.31.04-39.47-.03-3.08-.02-4.26-1.78-4.18-4.89.16-6.82-.09-13.66.1-20.48.1-3.59-.63-6.86-2.03-10.12-4.95-11.52-22.76-16.1-31.79-8.1l.06-.08c-.42.28-.84.57-1.26.85l-.39.21c-.74-.07-1.23.23-1.39.99h.06c-3.66.78-5.47,2.76-4.37,6.66-.2.67-.4,1.34-.59,2.02-2.21,1.94-2.29,4.56-2.3,7.21,0,6.98-.14,13.96.05,20.93.1,3.71-1.35,5.01-4.99,4.91-6.97-.18-13.95-.09-20.93-.02-4.26.04-8.12,1.25-11.29,4.29-7.12,6.83-9.58,21.98-4.8,30.61.9,1.62,1.56,3.78,3.97,4.05.33.32.66.64.99.96.09,1.63,1.02,2.1,2.49,1.83.48.2.96.4,1.43.59.63,3,3.01,2.61,5.14,2.61,7.98.02,15.97.12,23.95-.04,3.06-.06,4.07,1.02,4.01,4.04-.15,7.98-.25,15.97.04,23.95.14,3.93.58,8.07,4.3,10.72l-.14.28.15-.28c-.51,1.56.16,2.25,1.7,2.29.31.3.62.59.94.89.02,1.52.68,2.23,2.26,1.79l-.06.34.03-.35c.27.57.4,1.5.83,1.65,5.37,2,11.01,4.11,16.6,2.37,4.06-1.26,10.1-.17,11.29-6.64h0c2.58-.1,3.37-2.14,3.78-4.03,1.04-4.84,2.42-9.62,2.24-14.7-.22-6.15.04-12.33-.09-18.49-.06-2.76.87-3.84,3.72-3.82,13.32.1,26.65.07,39.98.03,2.23,0,3.4.66,3.39,3.11-.05,14.32-.01,28.65-.03,42.97,0,1.32.09,2.75-2.11,2.38-9.13-1.52-18.17,1.2-27.32.66-4.08-.24-8.03,1.14-10.51,4.95l.02-.02c-2.05.11-3.2.99-2.73,3.23l-.32-.14.33.11c-4.26,3.13-4.03,7.92-4.21,12.36-.11,2.53-1.53,5.83,2.15,7.41.2.67.4,1.33.6,2-1.52,2.05-.79,3.17,1.51,3.64-.33,3.17,1.54,4.18,4.26,4.36.28.03.47.17.57.43,2.5,4.03,6.72,4.27,10.69,4.43,6.95.27,13.95.41,20.88-.04,5.07-.33,6.55,1.22,6.36,6.32-.3,8.07-1.07,16.28.97,24.22,1,3.87,1.58,8.67,7.16,9.26l-.07.26.02-.27c4.28,5.52,10.65,5.5,16.43,5.03,4.48-.36,10.1.2,13-5.07l.2.16-.23-.1c4.62-2.32,6.78-5.92,7.48-11.2,1.07-8.11.77-16.2.76-24.3,0-3.29,1.11-4.32,4.33-4.24,7.3.18,14.62.35,21.9-.05,5.37-.29,11.02-.8,13.98-6.59l.17-.17c.82-.17,1.5-.45,1.31-1.5l.29.13-.31-.07c1.75-.2,1.35-1.55,1.42-2.66h0c.86-.13,1.61-.42,1.85-1.37,1.73-6.71,2.06-13.55-.42-20.01-.93-2.41-1.11-6.76-5.74-6.31h.08c-1.23-2.15-3.25-2.84-5.54-3.49-11.5-3.28-23.26-1.14-34.88-1.87.01-15.95.03-31.91.04-47.86,14.59-.03,29.18.09,43.76-.18,4.14-.08,5.03,1.42,4.93,5.17-.23,8.45-.14,16.91-.04,25.36.07,5.87,3.79,11.61,8.29,13.16l-.18.17.18-.16c.04,2.19,1.89,2.57,3.35,3.08,7.72,2.68,15.17,1.33,22.44-1.8.94-.4,1.63-1.11,1.56-2.27l.27.13-.29-.08c.71.06,1.05-.27,1.05-.98Z"/>
  <path class="cls-4" d="M255.97,234.03c-.19-.67-.39-1.33-.58-2-.91-7.52-.78-14.9,2.94-21.79,0,0-.07.07-.07.07,1.02-.38,1.66-1.11,1.98-2.14,0,0-.06.07-.06.07.57-.42,1.15-.85,1.72-1.27.4-.3.8-.6,1.21-.9,0,0-.05.03-.05.03.42-.28.85-.55,1.27-.83,0,0-.11.14-.11.14,10.68-2.64,21.55-1.16,32.33-1.31,4.1-.06,5.31-1.06,5.32-5.28.01-9.95-1.24-19.98,1.3-29.83,0,0-.02-.35-.02-.35.32-.54.64-1.07.96-1.6,0,0-.03.07-.03.07.31-.38.62-.76.92-1.15.44-.56.88-1.12,1.33-1.68,0,0-.06.04-.06.04,1.07-.25,1.75-.92,2.11-1.94l-.22-.24s.17.28.17.27c9.5-4.64,19.05-4.78,28.65-.35,0,0-.02-.01-.02-.01.65,1.11,1.56,1.89,2.79,2.29,0,0-.05-.06-.05-.06.31.36.63.72.94,1.08l-.03-.27s0,.27,0,.27c1.53,3.43,3.19,6.83,3.64,10.63.04,1,.07,1.99.11,2.99-.5,7.02-.49,14.05-.02,21.07,0,.64,0,1.28,0,1.92-.31,3.01,2,2.03,3.37,2.06,6.13.09,12.26.14,18.38,0,6.18-.14,12.25.08,17.87,3.04.53.37,1.05.75,1.58,1.12.38.38.76.76,1.15,1.14,0,0-.08-.03-.08-.03.43.6.87,1.2,1.3,1.8,0,0-.03-.05-.03-.05.29.49.57.99.86,1.48-.08.22-.01.37.19.47-.06,1.15.28,2.15,1.06,3,.11.66.23,1.31.34,1.97.25,7.43.61,14.87-3.78,21.48,0,0-.01.09,0,.1-.54.46-1.09.92-1.63,1.39,0,0,.02-.02.02-.02-4.93,2.78-10.25,3.53-15.85,3.37-6.98-.2-13.97-.11-20.96,0-1.4.02-3.57-1-3.82,1.77.02,15.62.03,31.24.05,46.87-.28,4.04,2.87,2.45,4.54,2.47,13.6.13,27.2-.09,40.79.17,4.12.08,4.9-1.4,4.95-5.15.13-11.4-1.36-22.9,1.75-34.14,0,0,.01.05.01.05.95-.49,1.45-1.28,1.58-2.33,0,0,0,0,0,0,.47-.55.94-1.1,1.4-1.64l-.23-.18s.18.22.18.22c10.86-5.77,21.43-5.93,31.57,1.71,0,0-.03-.02-.03-.03,2.81,4.71,3.72,9.83,3.58,15.28-.17,6.81.29,13.65-.13,20.45-.29,4.76,1.48,5.73,5.89,5.78,9.92.12,19.95-1.41,29.75,1.4,0,0,0,0,0,0,1,.66,2.01,1.31,3.01,1.97,0,0,.01.01.01.01.22.83.81,1.24,1.6,1.43l.39-.23s-.4.21-.4.21c.33.32.65.65.98.98l.28-.29s-.31.26-.31.26c5.13,10.12,5.19,20.26.08,30.41,0,0,.07-.07.07-.07-.78.17-1.25.66-1.45,1.42,0,0-.18.2-.18.2-.49.44-.99.89-1.48,1.34l.3.26s-.27-.29-.27-.29c-5.11,2.69-10.53,3.6-16.3,3.37-6.12-.25-12.26.03-18.38-.09-2.48-.05-3.62.63-3.58,3.32.16,9.59.16,19.19.22,28.78-.13.67-.26,1.35-.39,2.02-.9,2.19-1.79,4.38-2.69,6.58l.28.32s-.32-.29-.31-.28c-.28.36-.57.71-.85,1.06l.21.3s-.18-.32-.18-.32c-.33.35-.67.69-1,1.04,0,0,.25.18.25.18,0,0-.23-.22-.22-.21-.35.33-.7.65-1.05.98l.29.08s-.27-.13-.27-.13c-8.96,4.54-18.08,4.77-27.35.99l-.18.16s.18-.17.18-.17c-5.28-4.84-6.91-11.02-6.8-17.94.11-7.46-.15-14.92.08-22.38.11-3.53-1.11-4.48-4.54-4.43-13.76.18-27.52.04-41.28.13-1.46.01-3.37-.95-4.39,1.11-.01,15.95-.03,31.91-.04,47.86-.38,2.48,1.45,2.12,2.85,2.14,3.79.05,7.59-.03,11.38.03,8.84.14,17.85-1.02,26.2,3.21,0,0-.08-.01-.08-.01,2.98,3.44,5.19,7.14,5.57,11.9.43,5.37.01,10.59-1.26,15.78,0,0,0,0,0,0-.93.64-1.21,1.63-1.42,2.66l.31.07s-.29-.13-.29-.12c-.44.5-.87,1-1.31,1.5,0,0-.17.17-.17.17-4.67,3.57-9.98,4.95-15.81,4.88-7.3-.09-14.6.19-21.89-.05-3.58-.12-4.55,1.14-4.42,4.55.24,6.13-.18,12.28.13,18.4.37,7.17-1.33,13.43-6.46,18.6l.23.1s-.2-.16-.2-.16c-9.8,4.95-19.62,4.95-29.43.04l-.02.27s.07-.26.07-.26c-5.1-4.99-6.81-11.14-6.5-18.14.23-4.98.08-9.98.02-14.97-.11-9.77,1.26-8.1-8.51-8.44-10.39-.37-21.01,1.67-31.07-2.65-.1-.26-.29-.4-.57-.43-1.42-1.45-2.84-2.91-4.27-4.36-.5-1.21-1-2.43-1.51-3.64-.2-.67-.4-1.33-.6-2-.73-6.74-.67-13.4,2.06-19.77l-.33-.11s.32.14.32.14c.91-1.08,1.82-2.15,2.73-3.23,0,0-.02.02-.02.02,5.48-3.26,11.48-4.07,17.73-3.98,6.65.1,13.31-.1,19.96.07,2.95.08,4.14-.74,4.11-3.89-.12-14.64-.09-29.28,0-43.92.02-2.59-.87-3.47-3.46-3.45-14.64.09-29.28.11-43.92-.02-3.09-.03-3.51,1.39-3.48,3.96.11,7.32.01,14.64.03,21.96.02,5.75-.92,11.25-4.02,16.22,0,0,0,0,0,0-2.99,2.47-6.31,4.22-10.18,4.82-6.39,1-12.53.05-18.53-2.2l-.03.35s.06-.34.06-.34c-.47-.95-1.23-1.54-2.26-1.79-.31-.3-.62-.59-.94-.89-.26-.99-.76-1.8-1.7-2.29l-.15.28s.14-.28.13-.27c-1.82-5.06-2.72-10.22-2.53-15.64.22-6.32-.22-12.66.15-18.96.25-4.24-1.19-5.21-5.28-5.26-9.93-.1-19.97,1.38-29.78-1.43-.48-.2-.96-.4-1.44-.59-.58-.95-1.4-1.58-2.49-1.83-.33-.32-.66-.64-.99-.96-2.17-3.37-4.1-6.88-4.63-10.92-1.77-13.41,2.04-27.87,21.66-26.65,5.97.37,11.99-.19,17.96.14,4.09.22,5.02-1.35,4.98-5.15-.11-9.8.18-19.6.31-29.4.2-.67.4-1.34.59-2.02,1.46-2.21,2.91-4.43,4.37-6.64,0,0-.06-.01-.06-.02.46-.33.93-.66,1.39-.98,0,0,.39-.21.39-.21.42-.28.84-.57,1.26-.85,0,0-.06.08-.06.07,1.45-.37,2.88-.83,4.34-1.09,17.16-3.02,28.2,1.6,27.49,21.3-.25,6.82.07,13.65-.09,20.47-.07,3.04.61,4.54,4.08,4.5,14.32-.15,28.63-.1,42.95-.03,2.65.01,3.9-.73,3.88-3.68-.11-14.65-.12-29.3,0-43.95.02-2.92-1.05-3.73-3.8-3.67-6.32.14-12.66-.11-18.98.07-6.57.19-12.98-.05-18.78-3.64l-.33.2s.35-.17.34-.17c-.34-.33-.68-.66-1.02-.99,0,0,.02-.04.02-.03-1.13-1.87-2.26-3.75-3.39-5.62Z"/>
  <path class="cls-3" d="M260.34,240.64c5.8,3.58,12.22,3.83,18.78,3.64,6.32-.19,12.65.07,18.98-.07,2.74-.06,3.82.75,3.8,3.67-.12,14.65-.11,29.3,0,43.95.02,2.95-1.23,3.69-3.88,3.68-14.32-.07-28.64-.12-42.95.03-3.48.04-4.16-1.46-4.08-4.5.16-6.82-.16-13.66.09-20.47.71-19.7-10.33-24.32-27.49-21.3-1.47.26-2.9.72-4.34,1.09,9.02-8,26.84-3.42,31.79,8.1,1.4,3.26,2.13,6.53,2.03,10.12-.19,6.82.06,13.66-.1,20.48-.07,3.11,1.11,4.87,4.18,4.89,13.16.07,26.31.03,39.47.03,2.98,0,3.45-1.93,3.44-4.37-.03-13.32-.07-26.64.03-39.97.02-2.89-1.15-3.73-3.87-3.69-7.66.12-15.33.31-22.98-.05-4.75-.23-10.09.13-12.89-5.25Z"/>
  <path class="cls-3" d="M247.03,379.98c3.09-4.97,4.03-10.47,4.02-16.22-.02-7.32.07-14.64-.03-21.96-.04-2.56.38-3.98,3.48-3.96,14.64.13,29.28.11,43.92.02,2.59-.02,3.48.86,3.46,3.45-.09,14.64-.13,29.28,0,43.92.03,3.15-1.16,3.97-4.11,3.89-6.65-.17-13.31.03-19.96-.07-6.25-.09-12.26.71-17.73,3.98,2.48-3.81,6.43-5.19,10.51-4.95,9.15.54,18.19-2.18,27.32-.66,2.2.37,2.1-1.06,2.11-2.38.02-14.32-.01-28.65.03-42.97,0-2.45-1.16-3.12-3.39-3.11-13.33.05-26.65.07-39.98-.03-2.85-.02-3.78,1.06-3.72,3.82.13,6.16-.13,12.33.09,18.49.18,5.08-1.2,9.86-2.24,14.7-.4,1.89-1.2,3.93-3.78,4.03Z"/>
  <path class="cls-3" d="M211.35,261c-.13,9.8-.42,19.6-.31,29.4.04,3.79-.89,5.37-4.98,5.15-5.97-.33-11.99.23-17.96-.14-19.62-1.22-23.43,13.25-21.66,26.65.53,4.04,2.46,7.55,4.63,10.92-2.41-.27-3.07-2.42-3.97-4.05-4.78-8.63-2.32-23.78,4.8-30.61,3.17-3.04,7.03-4.25,11.29-4.29,6.98-.06,13.96-.15,20.93.02,3.63.09,5.09-1.21,4.99-4.91-.19-6.97-.05-13.95-.05-20.93,0-2.64.08-5.27,2.3-7.21Z"/>
  <path class="cls-3" d="M396.38,256.29c-3.1,11.25-1.62,22.75-1.75,34.14-.04,3.74-.83,5.23-4.95,5.15-13.59-.26-27.2-.03-40.79-.17-1.67-.02-4.82,1.57-4.54-2.47,10.17,2.18,20.47.61,30.71,1.02,4.47.18,8.97-.15,13.43.08,3.43.18,4.7-.93,4.58-4.48-.23-7.46-.23-14.93,0-22.39.12-3.84.18-7.88,3.3-10.89Z"/>
  <path class="cls-3" d="M262.24,426.43c10.06,4.32,20.68,2.28,31.07,2.65,9.77.34,8.4-1.33,8.51,8.44.06,4.99.2,9.99-.02,14.97-.32,6.99,1.39,13.14,6.5,18.14-5.58-.59-6.16-5.39-7.16-9.26-2.04-7.94-1.27-16.15-.97-24.22.19-5.1-1.28-6.65-6.36-6.32-6.94.45-13.93.3-20.88.04-3.97-.15-8.19-.4-10.69-4.43Z"/>
  <path class="cls-3" d="M337.65,470.63c5.13-5.17,6.83-11.43,6.46-18.6-.31-6.12.11-12.28-.13-18.4-.13-3.41.84-4.67,4.42-4.55,7.29.24,14.59-.04,21.89.05,5.83.07,11.14-1.31,15.81-4.88-2.95,5.79-8.61,6.29-13.98,6.59-7.28.4-14.6.23-21.9.05-3.22-.08-4.34.95-4.33,4.24.01,8.1.32,16.18-.76,24.3-.7,5.28-2.86,8.88-7.48,11.2Z"/>
  <path class="cls-3" d="M469.97,296.99c-9.8-2.8-19.83-1.28-29.75-1.4-4.41-.05-6.19-1.02-5.89-5.78.42-6.79-.04-13.63.13-20.45.14-5.45-.77-10.56-3.58-15.28,5.01,2.58,4.74,7.6,4.98,11.98.41,7.63.21,15.3.07,22.95-.05,2.6.68,3.87,3.42,4.33,6.78,1.14,13.56.94,20.31.2,4.13-.45,7.29,1.05,10.31,3.44Z"/>
  <path class="cls-3" d="M344.38,339.06c1.02-2.05,2.93-1.1,4.39-1.11,13.76-.1,27.52.04,41.28-.13,3.43-.04,4.65.9,4.54,4.43-.23,7.45.04,14.92-.08,22.38-.1,6.92,1.52,13.1,6.8,17.94-4.49-1.55-8.22-7.29-8.28-13.16-.1-8.45-.18-16.91.04-25.36.1-3.75-.79-5.25-4.93-5.17-14.58.28-29.18.15-43.76.18Z"/>
  <path class="cls-3" d="M175.99,336.35c9.81,2.8,19.85,1.33,29.78,1.43,4.09.04,5.53,1.02,5.28,5.26-.36,6.3.07,12.65-.15,18.96-.19,5.42.71,10.59,2.53,15.64-3.71-2.65-4.15-6.8-4.29-10.72-.29-7.97-.19-15.97-.04-23.95.06-3.02-.96-4.1-4.01-4.04-7.98.16-15.97.06-23.95.04-2.13,0-4.51.39-5.14-2.61Z"/>
  <path class="cls-3" d="M434.59,369.98c-.06-9.6-.06-19.19-.22-28.78-.05-2.69,1.1-3.37,3.58-3.32,6.13.12,12.26-.15,18.38.09,5.77.23,11.19-.68,16.3-3.37-1.46,3.23-4.11,4.38-7.49,4.38-8.31-.02-16.62.12-24.92-.06-3.23-.07-4.39.96-4.31,4.25.19,7.47.1,14.95.02,22.43-.02,1.53.75,3.43-1.34,4.38Z"/>
  <path class="cls-2" d="M303.16,169.01c-2.54,9.84-1.29,19.88-1.3,29.83,0,4.22-1.22,5.22-5.32,5.28-10.78.15-21.65-1.33-32.33,1.31,1.06-2.55,3.34-2.37,5.48-2.38,6.33-.04,12.65-.01,18.98-.01,11.34,0,11.26,0,11.37-11.62.06-6.29-.65-12.61.9-18.86.38-1.54.57-2.92,2.22-3.54Z"/>
  <path class="cls-3" d="M384.76,392.3c-8.34-4.23-17.35-3.07-26.2-3.21-3.79-.06-7.59.02-11.38-.03-1.4-.02-3.23.34-2.85-2.14,11.62.74,23.38-1.41,34.88,1.87,2.29.65,4.32,1.35,5.54,3.5Z"/>
  <path class="cls-3" d="M430.89,254.11c-10.14-7.64-20.7-7.48-31.57-1.71,1.37-4.74,5.95-4.63,9.27-5.09,5.98-.83,12.2-1,17.9,2.03,2.05,1.09,4.34,1.87,4.39,4.77Z"/>
  <path class="cls-3" d="M336.97,162.09c-9.61-4.43-19.16-4.29-28.65.35,5.15-5.81,12.12-5.2,18.87-5.36,4.15-.1,7.54,1.35,9.78,5.01Z"/>
  <path class="cls-3" d="M475.63,331.74c5.11-10.15,5.05-20.29-.08-30.41,3.88,1.6,3.54,5.67,4.73,8.67,2.88,7.28.34,17.98-4.65,21.74Z"/>
  <path class="cls-3" d="M218.32,382.6c6,2.25,12.15,3.2,18.53,2.2,3.87-.6,7.19-2.35,10.18-4.82-1.19,6.48-7.23,5.38-11.29,6.64-5.58,1.74-11.23-.38-16.6-2.37-.42-.16-.56-1.08-.83-1.65Z"/>
  <path class="cls-3" d="M388.99,419.97c1.28-5.19,1.69-10.41,1.26-15.78-.38-4.76-2.59-8.46-5.57-11.9,4.63-.45,4.81,3.9,5.74,6.31,2.48,6.46,2.15,13.29.42,20.01-.25.95-.99,1.24-1.85,1.36Z"/>
  <path class="cls-3" d="M401.31,382.58c9.27,3.78,18.39,3.55,27.35-.99.07,1.16-.63,1.87-1.56,2.27-7.27,3.12-14.72,4.48-22.44,1.8-1.46-.51-3.31-.89-3.35-3.08Z"/>
  <path class="cls-3" d="M308.25,470.61c9.82,4.92,19.63,4.91,29.43-.04-2.9,5.26-8.52,4.7-13,5.06-5.78.47-12.15.49-16.43-5.03Z"/>
  <path class="cls-3" d="M383.96,207.09c-5.63-2.97-11.7-3.18-17.87-3.04-6.12.14-12.25.09-18.38,0-1.37-.02-3.68.95-3.37-2.06,8.36,2.17,16.87.59,25.31,1,4.29.21,8.64-.35,12.63,1.95.97.56,1.65,1.02,1.69,2.15Z"/>
  <path class="cls-3" d="M344.3,246.08c.25-2.77,2.42-1.75,3.82-1.77,6.98-.1,13.98-.19,20.96,0,5.6.16,10.92-.6,15.85-3.37-2.01,3.57-5.56,3.82-9.05,4.19-7.73,0-15.47-.11-23.2.02-2.53.04-5.24-.93-7.59.87-.26.04-.53.06-.79.06Z"/>
  <path class="cls-3" d="M386.55,239.48c4.39-6.61,4.02-14.06,3.78-21.48,3.33,5.11,1.66,10.5.57,15.72-.49,2.32-.65,5.56-4.34,5.77Z"/>
  <path class="cls-3" d="M344.34,200.07c-.47-7.02-.49-14.05.02-21.07,1.12.29,1.59,1.06,1.59,2.17,0,5.58,0,11.17,0,16.75,0,1.11-.49,1.87-1.61,2.15Z"/>
  <path class="cls-3" d="M258.32,210.24c-3.72,6.9-3.85,14.28-2.94,21.79-4.05-6.68-2.51-18.15,2.94-21.79Z"/>
  <path class="cls-3" d="M257.37,396.23c-2.73,6.38-2.79,13.04-2.06,19.77-3.68-1.58-2.26-4.89-2.15-7.41.18-4.44-.04-9.23,4.21-12.36Z"/>
  <path class="cls-1" d="M345.09,246.02c2.35-1.8,5.06-.83,7.59-.87,7.73-.13,15.47-.03,23.2-.02-3.39,1.87-7.06.72-10.58.83-6.73.21-13.47.06-20.21.07Z"/>
  <path class="cls-3" d="M344.25,176.01c-.45-3.8-2.11-7.2-3.64-10.63,4.15,2.54,5.26,6.12,3.64,10.63Z"/>
  <path class="cls-3" d="M216.32,252.34c-1.46,2.21-2.91,4.43-4.37,6.64-1.11-3.9.71-5.88,4.37-6.64Z"/>
  <path class="cls-3" d="M255.97,234.03c1.13,1.87,2.26,3.75,3.39,5.62-3.12-.67-3.73-2.86-3.39-5.62Z"/>
  <path class="cls-3" d="M257.41,421.64c1.42,1.45,2.84,2.91,4.26,4.36-2.72-.18-4.6-1.2-4.26-4.36Z"/>
  <path class="cls-3" d="M431.51,378.58c.9-2.19,1.79-4.38,2.69-6.58,1.38,3.12-.81,4.78-2.69,6.58Z"/>
  <path class="cls-3" d="M255.9,418c.5,1.22,1,2.43,1.51,3.65-2.3-.47-3.03-1.59-1.51-3.65Z"/>
  <path class="cls-3" d="M260.09,393.02c-.91,1.08-1.82,2.15-2.73,3.23-.46-2.24.68-3.12,2.73-3.23Z"/>
  <path class="cls-3" d="M389.99,216.03c-.78-.85-1.13-1.85-1.06-3,1.16.72,2.75,1.28,1.06,3Z"/>
  <path class="cls-3" d="M397.97,254.01c-.13,1.05-.63,1.84-1.58,2.33-.5-1.48.12-2.19,1.58-2.33Z"/>
  <path class="cls-3" d="M472.98,298.96c-1-.66-2.01-1.31-3.01-1.97,1.46-.04,2.88-.02,3.01,1.97Z"/>
  <path class="cls-3" d="M339.74,164.36c-1.23-.4-2.14-1.18-2.79-2.29,1.56,0,2.65.57,2.79,2.29Z"/>
  <path class="cls-3" d="M216.09,380.81c1.03.25,1.78.84,2.26,1.79-1.57.44-2.24-.27-2.26-1.79Z"/>
  <path class="cls-3" d="M213.46,377.64c.94.49,1.45,1.29,1.7,2.29-1.54-.04-2.21-.72-1.7-2.29Z"/>
  <path class="cls-3" d="M172.07,333.93c1.1.25,1.91.88,2.49,1.83-1.48.27-2.41-.2-2.49-1.83Z"/>
  <path class="cls-3" d="M308.36,162.41c-.36,1.02-1.04,1.69-2.11,1.94.1-1.3.72-2.04,2.11-1.94Z"/>
  <path class="cls-3" d="M387.56,422.63c.21-1.03.5-2.01,1.42-2.66-.07,1.1.33,2.46-1.42,2.66Z"/>
  <path class="cls-3" d="M260.24,208.17c-.32,1.03-.96,1.76-1.98,2.14.04-1.29.76-1.94,1.98-2.14Z"/>
  <path class="cls-2" d="M263.1,206.08c-.4.3-.8.6-1.21.9-.29-.03-.58-.05-.87-.07.5-.76,1.26-.87,2.08-.83Z"/>
  <path class="cls-3" d="M387.9,211.12c-.43-.6-.86-1.2-1.3-1.8,1.21.04,1.35.85,1.3,1.8Z"/>
  <path class="cls-3" d="M399.38,252.36c-.47.55-.94,1.1-1.4,1.64.04-.92.21-1.72,1.4-1.64Z"/>
  <path class="cls-3" d="M472.59,334.63c.49-.45.99-.89,1.48-1.34-.16.81-.46,1.47-1.48,1.34Z"/>
  <path class="cls-3" d="M474.25,333.09c.19-.77.67-1.25,1.45-1.42.02.99-.64,1.28-1.45,1.42Z"/>
  <path class="cls-2" d="M304.98,165.98c-.31.38-.62.76-.92,1.15-.05-.83.08-1.59.86-2.07.01.31.03.62.06.92Z"/>
  <path class="cls-3" d="M304.98,165.98c-.03-.31-.05-.62-.06-.92.46-.25.92-.5,1.39-.75-.44.56-.88,1.12-1.32,1.68Z"/>
  <path class="cls-3" d="M384.91,240.96c.54-.46,1.09-.92,1.63-1.39.17,1.3-.7,1.37-1.63,1.39Z"/>
  <path class="cls-3" d="M261.02,206.91c.29.02.58.04.87.07-.57.42-1.15.84-1.72,1.27.28-.45.57-.89.85-1.34Z"/>
  <path class="cls-3" d="M386.27,424.08c.44-.5.88-1,1.31-1.5.19,1.05-.5,1.33-1.31,1.5Z"/>
  <path class="cls-3" d="M474.6,300.4c-.79-.19-1.38-.6-1.6-1.43.9.07,1.7.25,1.6,1.43Z"/>
  <path class="cls-3" d="M386.69,209.35c-.38-.38-.76-.76-1.15-1.14.71.05,1.13.39,1.15,1.14Z"/>
  <path class="cls-2" d="M304.09,167.06c-.32.53-.64,1.07-.96,1.6.32-.53.64-1.07.96-1.6Z"/>
  <path class="cls-3" d="M430.64,379.67c.28-.35.57-.71.85-1.06.18.72-.14,1.05-.85,1.06Z"/>
  <path class="cls-2" d="M264.32,205.28c-.42.28-.85.55-1.27.83.42-.28.85-.55,1.27-.83Z"/>
  <path class="cls-3" d="M429.66,380.69c.34-.35.67-.69,1-1.04.03.7-.31,1.04-1,1.04Z"/>
  <path class="cls-3" d="M428.64,381.64c.35-.32.7-.65,1.05-.98,0,.7-.34,1.03-1.05.98Z"/>
  <path class="cls-3" d="M340.63,165.38c-.31-.36-.62-.72-.94-1.08.69.03,1.02.38.94,1.08Z"/>
  <path class="cls-3" d="M219.3,250.28c-.42.28-.84.57-1.26.85.42-.28.84-.57,1.26-.85Z"/>
  <path class="cls-3" d="M388.73,212.56c-.29-.49-.57-.99-.86-1.48.64.29.92.79.86,1.48Z"/>
  <path class="cls-3" d="M259.34,239.69c.34.33.68.66,1.02.99-.7.05-1.04-.28-1.02-.99Z"/>
  <path class="cls-3" d="M475.57,301.36c-.33-.33-.65-.65-.98-.98.73-.08,1.05.25.98.98Z"/>
  <path class="cls-3" d="M217.65,251.34c-.46.33-.93.65-1.39.98.16-.76.65-1.05,1.39-.98Z"/>
</svg>